HIERARCHY
ROOT Hips
{
	OFFSET 0.000000 0.000000 0.000000
	CHANNELS 6 Xposition Yposition Zposition Xrotation Yrotation Zrotation
	JOINT LeftUpLeg_virtual
	{
		OFFSET 0.000000 0.000000 0.000000
		CHANNELS 3 Xrotation Yrotation Zrotation
		JOINT LeftUpLeg
		{
			OFFSET 15.427100 -6.655098 0.678600
			CHANNELS 3 Xrotation Yrotation Zrotation
			JOINT LeftLeg
			{
				OFFSET 4.081073 -39.591068 13.024000
				CHANNELS 3 Xrotation Yrotation Zrotation
				JOINT LeftFoot
				{
					OFFSET -4.081074 -37.707932 -15.979700
					CHANNELS 3 Xrotation Yrotation Zrotation
					JOINT LeftToeBase
					{
						OFFSET 5.346399 -15.068900 20.645000
						CHANNELS 3 Xrotation Yrotation Zrotation
						JOINT LeftToe_End
						{
							OFFSET 2.754700 0.931300 11.300900
							CHANNELS 3 Xrotation Yrotation Zrotation
							End Site
							{
								OFFSET 0 0 0
							}
						}
					}
				}
			}
		}
	}
	JOINT RightUpLeg_virtual
	{
		OFFSET 0.000000 0.000000 0.000000
		CHANNELS 3 Xrotation Yrotation Zrotation
		JOINT RightUpLeg
		{
			OFFSET -15.569500 -6.655098 0.678600
			CHANNELS 3 Xrotation Yrotation Zrotation
			JOINT RightLeg
			{
				OFFSET -4.081825 -39.591045 13.023800
				CHANNELS 3 Xrotation Yrotation Zrotation
				JOINT RightFoot
				{
					OFFSET 4.081824 -37.707954 -15.979600
					CHANNELS 3 Xrotation Yrotation Zrotation
					JOINT RightToeBase
					{
						OFFSET -5.346400 -15.068900 20.645000
						CHANNELS 3 Xrotation Yrotation Zrotation
						JOINT RightToe_End
						{
							OFFSET -2.754700 0.931300 11.300900
							CHANNELS 3 Xrotation Yrotation Zrotation
							End Site
							{
								OFFSET 0 0 0
							}
						}
					}
				}
			}
		}
	}
	JOINT Spine_virtual
	{
		OFFSET 0.000000 0.000000 0.000000
		CHANNELS 3 Xrotation Yrotation Zrotation
		JOINT Spine
		{
			OFFSET -0.279200 12.230698 -2.892100
			CHANNELS 3 Xrotation Yrotation Zrotation
			JOINT Spine1
			{
				OFFSET -0.232667 10.192268 -1.242267
				CHANNELS 3 Xrotation Yrotation Zrotation
				JOINT Spine1_split
				{
					OFFSET -0.232667 10.192268 -1.242267
					CHANNELS 3 Xrotation Yrotation Zrotation
					JOINT Spine2
					{
						OFFSET -0.232667 10.192268 -1.242267
						CHANNELS 3 Xrotation Yrotation Zrotation
						JOINT Neck_virtual
						{
							OFFSET 0.000000 0.000000 0.000000
							CHANNELS 3 Xrotation Yrotation Zrotation
							JOINT Neck
							{
								OFFSET -0.418800 17.814194 8.416900
								CHANNELS 3 Xrotation Yrotation Zrotation
								JOINT Head
								{
									OFFSET 0.000000 7.031097 3.806800
									CHANNELS 3 Xrotation Yrotation Zrotation
									JOINT HeadTop_End
									{
										OFFSET 0.000000 24.646606 12.978600
										CHANNELS 3 Xrotation Yrotation Zrotation
										End Site
										{
											OFFSET 0 0 0
										}
									}
								}
							}
						}
						JOINT LeftShoulder_virtual
						{
							OFFSET 0.000000 0.000000 0.000000
							CHANNELS 3 Xrotation Yrotation Zrotation
							JOINT LeftShoulder
							{
								OFFSET 8.476499 7.247704 -3.868750
								CHANNELS 3 Xrotation Yrotation Zrotation
								JOINT LeftShoulder_split
								{
									OFFSET 8.476499 7.247704 -3.868750
									CHANNELS 3 Xrotation Yrotation Zrotation
									JOINT LeftArm
									{
										OFFSET 9.308998 -2.777710 0.208600
										CHANNELS 3 Xrotation Yrotation Zrotation
										JOINT LeftForeArm
										{
											OFFSET 29.972298 0.000000 0.000000
											CHANNELS 3 Xrotation Yrotation Zrotation
											JOINT LeftHand
											{
												OFFSET 26.026505 0.000000 0.000000
												CHANNELS 3 Xrotation Yrotation Zrotation
												End Site
												{
													OFFSET 0 0 0
												}
											}
										}
									}
								}
							}
						}
						JOINT RightShoulder_virtual
						{
							OFFSET 0.000000 0.000000 0.000000
							CHANNELS 3 Xrotation Yrotation Zrotation
							JOINT RightShoulder
							{
								OFFSET -7.570500 7.247704 -3.868750
								CHANNELS 3 Xrotation Yrotation Zrotation
								JOINT RightShoulder_split
								{
									OFFSET -7.570500 7.247704 -3.868750
									CHANNELS 3 Xrotation Yrotation Zrotation
									JOINT RightArm
									{
										OFFSET -9.308998 -2.777710 0.208500
										CHANNELS 3 Xrotation Yrotation Zrotation
										JOINT RightForeArm
										{
											OFFSET -29.972300 0.000000 0.000000
											CHANNELS 3 Xrotation Yrotation Zrotation
											JOINT RightHand
											{
												OFFSET -26.026505 0.000000 0.000000
												CHANNELS 3 Xrotation Yrotation Zrotation
												End Site
												{
													OFFSET 0 0 0
												}
											}
										}
									}
								}
							}
						}
					}
				}
			}
		}
	}
}
MOTION
Frames: 9
Frame Time: 0.03333333
3.842215 94.049820 -4.125380 0.000000 0.000000 0.000000 -4.709962 9.082545 0.338325 -17.100885 14.887451 11.506167 20.756076 2.021232 6.645207 -0.550439 -10.042664 -15.850702 -2.199224 -3.008159 1.412242 0.000000 0.000000 0.000000 -4.556058 9.557733 0.299828 11.399526 -12.185312 5.046976 13.185650 -0.901726 -2.593168 -21.041834 -21.046214 9.662312 0.775651 1.672294 -14.186770 0.000000 0.000000 0.000000 -4.854799 10.556687 -0.161236 2.869377 -3.134760 4.001147 -2.127012 0.157591 3.514136 0.071875 -0.275109 -0.044292 0.000000 0.000000 0.000000 0.309007 2.370642 3.427534 15.029416 -0.193835 0.417646 -0.968073 -20.783214 -14.345564 0.000000 0.000000 0.000000 -1.800270 1.011873 2.678077 -0.996729 -19.545387 -12.509165 1.395310 0.632968 -5.166492 10.250947 -3.705496 -67.662641 3.740309 -6.911027 4.938139 0.000000 0.000000 0.000000 -0.947217 1.144359 3.615681 4.985649 1.993722 15.484234 -6.206801 1.103250 -0.205053 19.981046 10.591794 57.086403 -0.740859 -7.364016 -0.908024 0.000000 0.000000 0.000000 
3.818213 94.185379 -4.152626 0.000000 0.000000 0.000000 -4.317119 8.371265 0.200917 -16.933099 15.051141 11.616067 20.380303 2.000026 6.359939 -0.801024 -9.285785 -15.803127 -1.984585 -3.025628 1.461511 0.000000 0.000000 0.000000 -4.168506 8.859804 0.154039 10.775137 -12.264184 4.768509 13.025213 -0.850055 -2.420613 -20.543483 -20.340326 9.843552 0.581149 1.645484 -13.945179 0.000000 0.000000 0.000000 -4.364174 9.928463 -0.347189 2.931899 -3.442904 4.105531 -2.338463 0.049210 3.514145 0.074254 -0.285270 -0.037326 0.000000 0.000000 0.000000 0.159929 2.268660 3.434445 14.742501 -0.001277 0.320267 -1.180321 -19.263661 -14.573699 0.000000 0.000000 0.000000 -1.998230 0.918834 2.654080 -0.980619 -19.700156 -12.911053 1.659788 0.707874 -4.889082 10.909410 -2.167549 -67.975955 3.793096 -7.468728 4.712413 0.000000 0.000000 0.000000 -1.027839 1.042975 3.626402 5.088877 1.339310 15.574189 -6.789784 1.127458 -0.236500 22.157289 10.664761 55.819830 -1.166900 -7.582498 -0.365716 0.000000 0.000000 0.000000 
3.789690 94.311172 -4.216503 0.000000 0.000000 0.000000 -3.932939 7.492644 0.011606 -16.743876 15.179127 11.775636 20.070989 1.986714 6.094610 -1.082484 -8.358949 -15.869654 -1.911240 -3.045289 1.470426 0.000000 0.000000 0.000000 -3.789922 7.998237 -0.042596 10.099128 -12.380810 4.485108 12.881575 -0.806087 -2.214314 -20.089016 -19.453419 9.916820 0.507561 1.610913 -13.644929 0.000000 0.000000 0.000000 -3.879820 9.126109 -0.587130 3.029743 -3.662625 4.223939 -2.468512 -0.025193 3.529600 0.084332 -0.268130 -0.030576 0.000000 0.000000 0.000000 0.042024 2.189172 3.462004 14.349753 0.197479 0.214180 -1.429112 -17.823112 -14.759023 0.000000 0.000000 0.000000 -2.130678 0.852439 2.641495 -0.932796 -19.809912 -13.192482 1.765399 0.790975 -4.659970 11.339292 -1.038405 -68.463911 3.900295 -7.843344 4.605626 0.000000 0.000000 0.000000 -1.047914 0.984492 3.656198 5.140382 1.104929 15.713267 -7.443851 1.047680 -0.273871 22.890728 10.091436 54.731935 -1.573751 -8.370317 0.259643 0.000000 0.000000 0.000000 
3.755673 94.422211 -4.313463 0.000000 0.000000 0.000000 -3.560972 6.527414 -0.211930 -16.570269 15.228021 11.969760 19.849112 1.977014 5.873589 -1.374344 -7.312078 -16.027249 -1.991719 -3.064047 1.418306 0.000000 0.000000 0.000000 -3.428025 7.031459 -0.270927 9.386329 -12.533525 4.203876 12.752222 -0.785898 -1.981125 -19.630331 -18.420907 9.895737 0.529074 1.564078 -13.280575 0.000000 0.000000 0.000000 -3.426585 8.197187 -0.857973 3.156008 -3.784172 4.341795 -2.520761 -0.069632 3.537291 0.097927 -0.229460 -0.029146 0.000000 0.000000 0.000000 -0.046799 2.132808 3.484541 13.861849 0.411360 0.138492 -1.652062 -16.446448 -14.893345 0.000000 0.000000 0.000000 -2.193070 0.808906 2.613133 -0.846406 -19.864343 -13.336320 1.730456 0.839919 -4.471304 11.621090 -0.519343 -69.010121 4.012693 -7.929823 4.578908 0.000000 0.000000 0.000000 -1.025613 0.964784 3.680970 5.126002 1.264316 15.923965 -7.926225 0.933804 -0.320841 22.266082 9.080276 53.944540 -1.875138 -9.398349 0.875242 0.000000 0.000000 0.000000 
3.724087 94.530052 -4.433727 0.000000 0.000000 0.000000 -3.202011 5.529568 -0.452067 -16.402599 15.189781 12.167427 19.697111 1.965927 5.709347 -1.643479 -6.208096 -16.239777 -2.177852 -3.078863 1.302942 0.000000 0.000000 0.000000 -3.084309 6.007268 -0.508692 8.651831 -12.696908 3.920243 12.598601 -0.772291 -1.728758 -19.086791 -17.275695 9.874008 0.475681 1.516027 -12.856077 0.000000 0.000000 0.000000 -3.033081 7.192403 -1.131444 3.289044 -3.828214 4.445377 -2.508232 -0.097459 3.512851 0.107541 -0.196478 -0.034441 0.000000 0.000000 0.000000 -0.112588 2.089241 3.473550 13.318789 0.644886 0.134758 -1.752733 -15.173195 -14.965846 0.000000 0.000000 0.000000 -2.183117 0.776824 2.548835 -0.714492 -19.840291 -13.327163 1.607170 0.801835 -4.335926 11.782809 -0.651796 -69.514824 4.039280 -7.738142 4.572394 0.000000 0.000000 0.000000 -0.964121 0.967140 3.666937 5.035037 1.698625 16.167112 -8.041133 0.868097 -0.377094 20.707185 8.059164 53.491217 -2.044481 -10.174357 1.406403 0.000000 0.000000 0.000000 
3.701880 94.637260 -4.578970 0.000000 0.000000 0.000000 -2.853080 4.552592 -0.687750 -16.254126 15.082962 12.354368 19.578263 1.950873 5.596495 -1.858168 -5.097633 -16.473020 -2.370090 -3.087993 1.128288 0.000000 0.000000 0.000000 -2.755322 4.982676 -0.739796 7.937030 -12.845383 3.633313 12.384585 -0.761534 -1.481151 -18.427350 -16.059021 9.888200 0.233882 1.472825 -12.372352 0.000000 0.000000 0.000000 -2.693793 6.150782 -1.378172 3.398563 -3.825576 4.529089 -2.450563 -0.126904 3.443674 0.102174 -0.176380 -0.042211 0.000000 0.000000 0.000000 -0.154831 2.046902 3.409567 12.762499 0.908098 0.210983 -1.697631 -14.032250 -14.954482 0.000000 0.000000 0.000000 -2.108018 0.745342 2.440876 -0.556329 -19.723729 -13.194944 1.441242 0.722095 -4.226875 11.869739 -1.310165 -69.903735 3.931455 -7.428737 4.554678 0.000000 0.000000 0.000000 -0.872850 0.969715 3.595475 4.867180 2.324180 16.382163 -7.762706 0.956796 -0.460858 18.735098 7.553870 53.361717 -2.069531 -10.315075 1.797544 0.000000 0.000000 0.000000 
3.692117 94.755211 -4.731440 0.000000 0.000000 0.000000 -2.521544 3.622670 -0.904040 -16.118225 14.951091 12.515674 19.430254 1.925854 5.524706 -1.979278 -4.045942 -16.691913 -2.555940 -3.095223 0.935754 0.000000 0.000000 0.000000 -2.442318 4.005762 -0.954583 7.282255 -12.953541 3.364568 12.084845 -0.778622 -1.264677 -17.735694 -14.833260 9.863714 -0.083789 1.420140 -11.830669 0.000000 0.000000 0.000000 -2.395784 5.127500 -1.592762 3.463745 -3.807313 4.580121 -2.359154 -0.165233 3.331841 0.097393 -0.182905 -0.046879 0.000000 0.000000 0.000000 -0.164516 1.999337 3.301825 12.208437 1.199566 0.365326 -1.500431 -13.045800 -14.848498 0.000000 0.000000 0.000000 -1.985152 0.707178 2.297327 -0.383030 -19.540831 -12.975364 1.279618 0.583204 -4.145809 11.928331 -2.316881 -70.144035 3.661531 -7.191650 4.511520 0.000000 0.000000 0.000000 -0.745197 0.959971 3.476607 4.637215 3.068084 16.509812 -7.306279 1.104247 -0.538643 16.743809 7.951292 53.513470 -1.978010 -9.807177 2.038809 0.000000 0.000000 0.000000 
3.702122 94.887833 -4.899437 0.000000 0.000000 0.000000 -2.211903 2.748926 -1.098081 -15.975831 14.844661 12.638836 19.205703 1.897919 5.484911 -1.989016 -3.092807 -16.855749 -2.740765 -3.108375 0.764881 0.000000 0.000000 0.000000 -2.149548 3.107502 -1.151506 6.701564 -13.024848 3.107803 11.675754 -0.849267 -1.078684 -17.077491 -13.651956 9.739723 -0.349769 1.350812 -11.243881 0.000000 0.000000 0.000000 -2.117916 4.157108 -1.772129 3.486313 -3.791893 4.594244 -2.228128 -0.211109 3.199310 0.098444 -0.202905 -0.038210 0.000000 0.000000 0.000000 -0.145165 1.946574 3.170515 11.647401 1.505164 0.571472 -1.237788 -12.268268 -14.652726 0.000000 0.000000 0.000000 -1.816477 0.663015 2.145568 -0.210558 -19.320298 -12.727040 1.109551 0.400284 -4.107353 11.922169 -3.509258 -70.270858 3.263448 -7.062812 4.467795 0.000000 0.000000 0.000000 -0.572222 0.938784 3.333846 4.368622 3.886315 16.517344 -6.804709 1.276811 -0.605155 14.957011 9.246614 53.959502 -1.861341 -8.782834 2.130693 0.000000 0.000000 0.000000 
3.724138 95.033325 -5.076685 0.000000 0.000000 0.000000 -1.932835 1.943224 -1.271204 -15.831279 14.806752 12.714135 18.882439 1.882684 5.467449 -1.899808 -2.258877 -16.921585 -2.895273 -3.130024 0.621653 0.000000 0.000000 0.000000 -1.887499 2.313916 -1.332664 6.188075 -13.071297 2.864601 11.218276 -0.976943 -0.906924 -16.440122 -12.557887 9.542880 -0.589334 1.276030 -10.645934 0.000000 0.000000 0.000000 -1.849419 3.277224 -1.920129 3.480289 -3.773728 4.570335 -2.057133 -0.254376 3.070080 0.102428 -0.214072 -0.027227 0.000000 0.000000 0.000000 -0.095239 1.899190 3.043919 11.052639 1.803466 0.794332 -1.023905 -11.729959 -14.369593 0.000000 0.000000 0.000000 -1.621815 0.620189 2.009919 -0.067450 -19.129179 -12.518802 0.954763 0.166583 -4.096731 11.805202 -4.821686 -70.315725 2.829354 -6.996711 4.475832 0.000000 0.000000 0.000000 -0.360535 0.916486 3.198391 4.085930 4.802361 16.406196 -6.487460 1.290326 -0.581940 13.412818 11.294982 54.627706 -1.781244 -7.569889 2.105669 0.000000 0.000000 0.000000 
